<svg width="160" height="160" viewBox="0 0 160 160" fill="none" xmlns="http://www.w3.org/2000/svg">
  <rect width="160" height="160" rx="36" fill="#EEF6FB"/>
  <path d="M80 24L94.321 61.122L134 63.279L103.202 88.437L113.344 126.931L80 105.278L46.656 126.931L56.798 88.437L26 63.279L65.679 61.122L80 24Z" fill="#1F4E7A"/>
  <path d="M80 41L89.297 65.096L115 66.493L95.05 82.793L101.619 107.776L80 93.724L58.381 107.776L64.95 82.793L45 66.493L70.703 65.096L80 41Z" fill="#78C9E8"/>
  <path d="M80 58L86.12 73.864L103.038 74.783L89.906 85.51L94.229 101.947L80 92.698L65.771 101.947L70.094 85.51L56.962 74.783L73.88 73.864L80 58Z" fill="#FFFFFF"/>
</svg>
