<svg width="160" height="160" viewBox="0 0 160 160" fill="none" xmlns="http://www.w3.org/2000/svg">
  <rect width="160" height="160" rx="36" fill="#0E1F2C"/>
  <path d="M34 103C34 75.938 54.742 54 80.333 54C105.924 54 126.667 75.938 126.667 103V116H34V103Z" fill="#EEF6FB"/>
  <path d="M48 103C48 84.118 62.551 68.812 80.5 68.812C98.449 68.812 113 84.118 113 103" stroke="#78C9E8" stroke-width="8" stroke-linecap="round"/>
  <path d="M80 55V116" stroke="#A8CCE0" stroke-width="7"/>
  <path d="M41 90H120" stroke="#A8CCE0" stroke-width="7"/>
  <path d="M63 116V96C63 87.716 69.716 81 78 81H82C90.284 81 97 87.716 97 96V116" fill="#0E1F2C"/>
  <path d="M43 122H118" stroke="#2DBFB0" stroke-width="8" stroke-linecap="round"/>
</svg>
