<svg width="320" height="240" viewBox="0 0 320 240" fill="none" xmlns="http://www.w3.org/2000/svg">
  <filter id="s" x="-20%" y="-30%" width="140%" height="160%"><feDropShadow dx="0" dy="14" stdDeviation="9" flood-color="#120B2E" flood-opacity=".34"></feDropShadow></filter>
  <g filter="url(#s)" stroke="#13091F" stroke-width="7" stroke-linecap="round" stroke-linejoin="round">
    <path d="M70 162C76 89 119 45 177 48C236 51 274 96 277 164C240 196 107 197 70 162Z" fill="#FFE66D"></path>
    <path d="M112 63L98 27L144 50M215 55L248 25L240 76" fill="#FFE66D"></path>
    <path d="M90 164C121 142 143 143 160 170C183 139 225 141 256 165" fill="#FFB86B"></path>
  </g>
  <ellipse cx="132" cy="105" rx="30" ry="22" fill="#F9FAFF" stroke="#13091F" stroke-width="6"></ellipse>
  <ellipse cx="205" cy="105" rx="30" ry="22" fill="#F9FAFF" stroke="#13091F" stroke-width="6"></ellipse>
  <circle cx="138" cy="108" r="10" fill="#13091F"></circle><circle cx="199" cy="108" r="10" fill="#13091F"></circle>
  <path d="M142 149C159 159 181 159 198 149" stroke="#D9417E" stroke-width="9" stroke-linecap="round"></path>
</svg>